



[IMG]http://img228.imageshack.us/img228/7139/tonightfine.jpg[/IMG]



[b][color=blue][i]Songs from a Room is the second album of Canadian musician Leonard Cohen, released in 1969. It reached #63 on the Billboard list and #2 at UK charts.
Cohen reportedly said he chose producer Bob Johnston to achieve the spartan sound he considered appropriate for his songs, after the disputes he had with John Simon during the mixing sessions of Songs of Leonard Cohen. The album also features some prominent (if strictly ornamental) Jew's harp. The album's sound is thus closer to the archetype (or stereotype) of an "early" Leonard Cohen record.
Among uncredited sessions musicians it is known that Ron Cornelius played acoustic and electric guitar, Charlie Daniels played bass, fiddle and acoustic guitar, Elkin «Bubba» Fowler participated on banjo, bass and acoustic guitar, while producer Bob Johnston played keyboards. Interestingly, Johnston toured with Cohen in 1970 and 1972 (playing keyboards, harmonica and guitar), leading to termination of his collaboration with Bob Dylan.
In sheet music for the album, a song titled "Priests" was included, and although reportedly recorded, it didn't appear on the actual LP or any other Cohen record. The song was recorded by Judy Collins on her 1967 album Wildflowers, and by Richie Havens on his 1969 album Richard P. Havens, 1983.
Songs from a Room was released on CD in 1990. In 2001, French musician Red released a re-recording of the entire album.
In 2009, the album (including the bonus tracks listed below) was included in Hallelujah - The Essential Leonard Cohen Album Collection, an eight-CD box set issued by Sony Music in the Netherlands.

[/i][/color][/b]




[IMG]http://img130.imageshack.us/img130/4809/scanbook2.jpg[/IMG]




[b][color=blue][i]

Personnel

Ron Cornelius - acoustic & electric guitar
Bubba Fowler - banjo, bass, violin, acoustic guitar
Charlie Daniels - bass, violin, acoustic guitar
Bob Johnston - production, keyboards
Neil Wilburn - engineer

Side one
"Bird on the Wire" – 3:28
"Story of Isaac" – 3:38
"A Bunch of Lonesome Heroes" – 3:18
"The Partisan" – 3:29
"Seems So Long Ago, Nancy" – 3:41



Side two
"The Old Revolution" – 4:50
"The Butcher" – 3:22
"You Know Who I Am" – 3:32
"Lady Midnight" – 3:01
"Tonight Will Be Fine" – 3:53
[/i][/color][/b]



[CODE]Exact Audio Copy V0.99 prebeta 4 from 23. January 2008

EAC extraction logfile from 19. May 2009, 21:28

Leonard Cohen / Songs from a Room

Used drive  : MAD DOG MD-16XDVD9A4   Adapter: 4  ID: 0

Read mode               : Secure
Utilize accurate stream : Yes
Defeat audio cache      : Yes
Make use of C2 pointers : No

Read offset correction                      : 48
Overread into Lead-In and Lead-Out          : No
Fill up missing offset samples with silence : Yes
Delete leading and trailing silent blocks   : No
Null samples used in CRC calculations       : Yes
Used interface                              : Native Win32 interface for Win NT & 2000
Gap handling                                : Appended to previous track

Used output format              : User Defined Encoder
Selected bitrate                : 320 kBit/s
Quality                         : High
Add ID3 tag                     : No
Command line compressor         : C:\Program Files\Exact Audio Copy\Flac\flac.exe
Additional command line options : -V -8 -T "artist=%a" -T "title=%t" -T "album=%g" -T "date=%y" -T "tracknumber=%n" -T "genre=%m" %s


TOC of the extracted CD

     Track |   Start  |  Length  | Start sector | End sector 
    ---------------------------------------------------------
        1  |  0:00.00 |  3:26.27 |         0    |    15476   
        2  |  3:26.27 |  3:35.35 |     15477    |    31636   
        3  |  7:01.62 |  3:12.68 |     31637    |    46104   
        4  | 10:14.55 |  3:26.22 |     46105    |    61576   
        5  | 13:41.02 |  3:39.43 |     61577    |    78044   
        6  | 17:20.45 |  4:46.27 |     78045    |    99521   
        7  | 22:06.72 |  3:17.25 |     99522    |   114321   
        8  | 25:24.22 |  3:28.40 |    114322    |   129961   
        9  | 28:52.62 |  2:56.23 |    129962    |   143184   
       10  | 31:49.10 |  3:47.40 |    143185    |   160249   


Track  1

     Filename 01 - Bird on the Wire.wav

     Pre-gap length  0:00:02.00

     Peak level 36.3 %
     Track quality 100.0 %
     Test CRC 6B730E74
     Copy CRC 6B730E74
     Cannot be verified as accurate (confidence 8)  [515B9D48], AccurateRip returned [C503E55D]
     Copy OK

Track  2

     Filename 02 - Story of Isaac.wav

     Pre-gap length  0:00:01.60

     Peak level 64.0 %
     Track quality 100.0 %
     Test CRC 948ACEBE
     Copy CRC 948ACEBE
     Cannot be verified as accurate (confidence 8)  [2457A0C3], AccurateRip returned [F4C63278]
     Copy OK

Track  3

     Filename 03 - A Bunch of Lonesome Heroes.wav

     Pre-gap length  0:00:01.53

     Peak level 61.0 %
     Track quality 99.9 %
     Test CRC 0C01DFE2
     Copy CRC 0C01DFE2
     Cannot be verified as accurate (confidence 8)  [5685CE30], AccurateRip returned [A0817B2D]
     Copy OK

Track  4

     Filename 04 - The Partisan.wav

     Peak level 39.7 %
     Track quality 100.0 %
     Test CRC E550A4A1
     Copy CRC E550A4A1
     Cannot be verified as accurate (confidence 8)  [328A266F], AccurateRip returned [82246C79]
     Copy OK

Track  5

     Filename 05 - Seems So Long Ago, Nancy.wav

     Pre-gap length  0:00:01.73

     Peak level 34.2 %
     Track quality 100.0 %
     Test CRC 4FD760B8
     Copy CRC 4FD760B8
     Cannot be verified as accurate (confidence 8)  [6D72716F], AccurateRip returned [6A6E92C0]
     Copy OK

Track  6

     Filename 06 - The Old Revolution.wav

     Pre-gap length  0:00:01.60

     Peak level 56.2 %
     Track quality 100.0 %
     Test CRC A655F495
     Copy CRC A655F495
     Cannot be verified as accurate (confidence 8)  [A75C52E9], AccurateRip returned [B37C9C13]
     Copy OK

Track  7

     Filename 07 - The Butcher.wav

     Pre-gap length  0:00:01.56

     Peak level 54.2 %
     Track quality 100.0 %
     Test CRC 4B320647
     Copy CRC 4B320647
     Cannot be verified as accurate (confidence 8)  [68CC686C], AccurateRip returned [2FEBC994]
     Copy OK

Track  8

     Filename 08 - You Know Who I Am.wav

     Pre-gap length  0:00:00.53

     Peak level 49.7 %
     Track quality 99.9 %
     Test CRC DBF5CBF3
     Copy CRC DBF5CBF3
     Cannot be verified as accurate (confidence 8)  [89D76745], AccurateRip returned [2DC86F32]
     Copy OK

Track  9

     Filename 09 - Lady Midnight.wav

     Pre-gap length  0:00:01.53

     Peak level 51.1 %
     Track quality 99.9 %
     Test CRC C2369418
     Copy CRC C2369418
     Cannot be verified as accurate (confidence 8)  [77DBCB20], AccurateRip returned [2D04A16F]
     Copy OK

Track 10

     Filename 10 - Tonight Will Be Fine.wav

     Pre-gap length  0:00:00.20

     Peak level 35.8 %
     Track quality 100.0 %
     Test CRC 513BAF4A
     Copy CRC 513BAF4A
     Cannot be verified as accurate (confidence 7)  [9D6BC028], AccurateRip returned [D861D5E4]
     Copy OK


No tracks could be verified as accurate
You may have a different pressing from the one(s) in the database

No errors occurred

End of status report

[/CODE]



[i][color=#000099][b]All credits go to cromags  for the original upload on what
20 kb/s 24/7 salvo imprevisti[/b][/color][/i]



[IMG]http://img573.imageshack.us/img573/7803/scantray.jpg[/IMG]